<svg id="Слой_1" data-name="Слой 1" xmlns="http://www.w3.org/2000/svg" viewBox="0 0 297.6 305.49"><defs><style>.cls-1{fill:#0b828e;}</style></defs><path class="cls-1" d="M319.46,269.24c-4.64,1.68-8.48,11.84-7.76,20.4l.4,5.2-2.16-.4c-15.52-3.2-74.64-13.28-77.84-13.28-3.84,0-4.72.32-7.84,3-7.52,6.48-7.36,15.84.56,21.28,2.8,1.92,10.64,3.36,104.08,19.36C384.5,334.2,431.38,342,433.14,342a16.36,16.36,0,0,0,11.44-5.6c1.68-2.08,2.08-3.36,2.08-7,0-5.12-1.76-8.8-5.36-11.12-1.52-1-14.08-3.52-42-8.32-21.92-3.76-40.08-7-40.32-7.36s.16-1.36.88-2.48c3.28-5,4.48-15,2.4-19.92-2.4-5.76-5.44-7.28-19.44-9.6C329.94,268.28,323,268,319.46,269.24Z" transform="translate(-149.06 -268.49)"/><path class="cls-1" d="M222.66,316.76c0,.32,1.28,5.2,2.8,10.88s2.8,10.88,2.8,11.44-3.44,2.32-8.48,4.08c-8.48,3-24.64,11.44-29.92,15.52a37,37,0,0,1-4.8,3.28c-3.6,1.84-17.6,16.32-21.84,22.4a74,74,0,0,0-11.76,26.32,62.94,62.94,0,0,0-2.4,19.2c0,5.36.24,9.68.64,9.68s1.44-1.36,2.56-3c5.12-7.52,19.92-19.92,32.4-27.12,10.48-6.08,23-11.52,31.6-13.52l6.4-1.6c14.08-3.92,18.48-4.8,19.12-4.08.4.48,2.08,6,3.68,12.24S248.74,414,249,414a73.91,73.91,0,0,0,6.24-7.84c3.2-4.24,12.08-16.08,19.84-26.16s16.32-21.52,19.12-25.28l5.12-7-2.88-1.2c-1.68-.64-18.24-7.6-37-15.36C223.62,316.2,222.66,315.8,222.66,316.76Z" transform="translate(-149.06 -268.49)"/><path class="cls-1" d="M293.62,370.76l-14.16,18.4,1.2,3.84c1,3.28,16.4,132,16.4,137.68,0,2.8-3.6,8.24-6.56,10.08-5.2,3-12.72,1.12-16.32-4.24-2.32-3.36-2.48-4.72-9.52-63-3.28-27.76-6.16-51.6-6.48-53.12l-.4-2.72-2.8,2.72c-2.32,2.24-3.36,2.72-6.4,2.72-5.36,0-7.44-2.72-10.32-13.28-1.2-4.56-2.48-8.64-2.88-9s-2.4-.24-4.64.4c-3.44.88-4,1.28-3.68,2.64.24,1,5.28,37.12,11.28,80.48,12,86.8,11.2,83,17.68,87.44l3,2.08,75.68.08c63.76.08,76.16-.08,78.4-1,3.6-1.44,7.76-6.24,8.32-9.52,1.36-8.16,24.4-195.52,24.4-198.48,0-4.56-2.72-8-8.4-10.64l-4-1.92H307.86Zm47.6,14.48a14,14,0,0,1,3.92,5c1.44,3.12,1.52,6.72,1.52,72.88,0,66.72-.08,69.76-1.52,73-2.8,6.16-11.36,8.56-17,4.8a20.5,20.5,0,0,1-4.4-4.32c-1.68-2.48-1.68-3-2.24-72.4-.48-51.6-.4-70.48.32-72.24a16.59,16.59,0,0,1,7.6-8.08C332.58,382.36,338.1,383.08,341.22,385.24Zm62.4-.88c3.52,1,7.44,5.28,8.56,9.28.64,2.32-.64,15.36-6.32,64.64-8.08,69-8.56,72.72-10.24,76.08-3.36,7-10.8,10.4-16.4,7.52-3.36-1.76-7-5.92-7.84-8.88-1.12-4.4,14.64-137,16.88-141.36C391.62,385.08,397,382.52,403.62,384.36Z" transform="translate(-149.06 -268.49)"/></svg>